<svg width="116" height="71" viewBox="0 0 116 71" fill="none" xmlns="http://www.w3.org/2000/svg">
<path d="M62.8149 60.4954V17.1413C62.8149 16.1861 63.4733 15.3674 64.4098 15.1799C70.8061 13.8993 94.9272 9.01046 108.931 5.34607C111.524 4.66773 113.602 3.28749 115.139 0.106177V46.1483C115.139 50.4573 110.332 51.3082 110.332 51.3082L65.2947 62.437C64.0338 62.7486 62.8149 61.7943 62.8149 60.4954Z" fill="#25A1FB"/>
<path d="M3.24931 40.7487C3.24931 39.6441 4.13637 38.5452 5.21299 38.2983C6.28961 38.0514 7.17667 38.7434 7.17667 39.848V42.428L9.77168 41.8328V38.6073C9.77168 36.3982 8.02613 35.0076 5.87289 35.5014L4.55309 35.8041C2.39985 36.2979 0.654306 38.4891 0.654304 40.6982L0.654299 48.3905C0.654298 50.5997 2.39984 51.9902 4.55309 51.4964L5.22728 51.3418C6.3039 51.0949 7.17667 51.7902 7.17667 52.8947V64.2437C7.17667 65.3482 6.28961 66.4471 5.21299 66.694C4.13637 66.9409 3.24931 66.2489 3.24931 65.1444V61.864L0.654307 62.4591L0.654302 66.385C0.654299 68.5942 2.39985 69.9847 4.55309 69.4909L5.87289 69.1882C8.02613 68.6944 9.77168 66.5033 9.77168 64.2941V51.6541C9.77168 49.4449 8.02613 48.0544 5.87289 48.5482L5.1987 48.7028C4.12208 48.9497 3.24931 48.2544 3.24931 47.1499V40.7487Z" fill="#30526B"/>
<path fill-rule="evenodd" clip-rule="evenodd" d="M16.9032 32.9717C14.7499 33.4655 13.0044 35.6567 13.0044 37.8658V63.5526C13.0044 65.7618 14.7499 67.1523 16.9032 66.6585L18.223 66.3558C20.3762 65.862 22.1218 63.6708 22.1218 61.4617V35.7749C22.1218 33.5658 20.3762 32.1752 18.223 32.669L16.9032 32.9717ZM15.5994 62.312C15.5994 63.4165 16.4865 64.1085 17.5631 63.8616C18.6397 63.6147 19.5268 62.5158 19.5268 61.4113V37.0156C19.5268 35.911 18.6397 35.219 17.5631 35.4659C16.4865 35.7128 15.5994 36.8117 15.5994 37.9163V62.312Z" fill="#30526B"/>
<path fill-rule="evenodd" clip-rule="evenodd" d="M99.0537 47.8189L101.649 47.2237V34.7314L105.775 33.7851V46.2774L108.37 45.6823V33.1899L108.374 33.189V30.5435L108.37 30.5444V15.9955C108.37 13.7864 106.625 12.3958 104.471 12.8896L102.952 13.238C100.799 13.7318 99.0537 15.9229 99.0537 18.1321V47.8189ZM101.649 32.0859L105.775 31.1395V16.2362C105.775 15.6839 105.339 15.3362 104.801 15.4597L102.623 15.959C102.085 16.0824 101.649 16.6302 101.649 17.1825V32.0859Z" fill="white"/>
<path fill-rule="evenodd" clip-rule="evenodd" d="M65.3096 55.5573L67.9046 54.9621V42.4698L72.0311 41.5235V54.0158L74.6261 53.4207V40.9283L74.6301 40.9274V38.2819L74.6261 38.2828V23.7339C74.6261 21.5248 72.8805 20.1342 70.7273 20.628L69.2084 20.9764C67.0551 21.4702 65.3096 23.6613 65.3096 25.8705V55.5573ZM67.9046 39.8243L72.0311 38.8779V23.9746C72.0311 23.4223 71.5947 23.0747 71.0564 23.1981L68.8793 23.6974C68.341 23.8208 67.9046 24.3686 67.9046 24.9209V39.8243Z" fill="white"/>
<path fill-rule="evenodd" clip-rule="evenodd" d="M54.4041 58.0583L51.8091 58.6535V24.9667L58.5991 23.4095C59.9944 23.0895 61.1256 23.9833 61.1256 25.4058V35.2467C60.993 37.5972 58.5962 38.1468 58.5962 38.1468C58.5962 38.1468 60.993 37.5972 61.1256 39.8555V56.5169L58.5306 57.112V41.4C58.5306 40.3331 57.6822 39.6628 56.6357 39.9028L54.4041 40.4146V58.0583ZM56.6357 37.2572L54.4041 37.769V27.661C54.4041 27.3054 54.6869 26.9523 55.0357 26.8723L57.899 26.2156C58.2478 26.1356 58.5306 26.3591 58.5306 26.7147V34.8909C58.5306 35.9578 57.6822 37.0172 56.6357 37.2572Z" fill="#30526B"/>
<path fill-rule="evenodd" clip-rule="evenodd" d="M26.3057 30.8156L33.0957 29.2584C34.491 28.9384 35.6222 29.8321 35.6222 31.2547V41.0955C35.4896 43.4461 33.0928 43.9957 33.0928 43.9957C33.0928 43.9957 35.4896 43.4461 35.6222 45.7044L35.6222 58.3658C35.6222 60.5749 33.8766 62.7661 31.7234 63.2599L26.3057 64.5023V30.8156ZM31.0778 60.7624C32.1544 60.5155 33.0272 59.4199 33.0272 58.3153V47.2489C33.0272 46.182 32.1788 45.5117 31.1323 45.7517L28.9007 46.2635V61.2617L31.0778 60.7624ZM28.9007 43.6179L31.1323 43.1061C32.1788 42.8661 33.0272 41.8067 33.0272 40.7398V32.5636C33.0272 32.2079 32.7444 31.9845 32.3956 32.0645L29.5323 32.7211C29.1835 32.8011 28.9007 33.1543 28.9007 33.5099V43.6179Z" fill="#30526B"/>
<rect width="2.66237" height="33.6868" transform="matrix(0.974697 -0.223531 0 1 92.1157 15.723)" fill="white"/>
<rect width="2.66237" height="33.6868" transform="matrix(0.974697 -0.223531 0 1 78.8145 18.788)" fill="white"/>
<rect width="2.66237" height="33.6868" transform="matrix(0.974697 -0.223531 0 1 85.3369 17.2921)" fill="white"/>
<path d="M78.8262 18.7706L81.4212 18.1755L87.9318 50.3835L85.3368 50.9786L78.8262 18.7706Z" fill="white"/>
<path fill-rule="evenodd" clip-rule="evenodd" d="M42.4002 27.1244L39.8052 27.7195V61.4063L39.8055 61.4062V61.4064L47.6254 59.613V56.9674L42.4002 58.1658V42.3747L47.6254 41.1764V38.5309L42.4002 39.7292V29.7702L47.6254 28.5719V25.9263L42.4002 27.1246V27.1244Z" fill="#30526B"/>
</svg>
