<svg width="41" height="53" viewBox="0 0 41 53" fill="none" xmlns="http://www.w3.org/2000/svg">
<path d="M40.7302 0.813761C40.6014 0.574344 40.3538 0.426758 40.0797 0.426758H33.951C33.7 0.426758 33.4656 0.554665 33.3302 0.767845L20.2307 21.4167C20.0755 21.6627 20.0821 21.9743 20.2439 22.217L22.7799 25.9263C22.9153 26.1264 23.1431 26.2444 23.3875 26.2444C23.6319 26.2444 23.8564 26.1264 23.9951 25.9263L40.6873 1.56809C40.8392 1.34507 40.8557 1.05646 40.7302 0.81704V0.813761Z" fill="url(#paint0_linear_1_2)"/>
<path d="M32.683 38.1921L26.4288 29.1894C26.2934 28.9926 26.0689 28.8778 25.8311 28.8745H25.8245C25.5867 28.8745 25.3655 28.9893 25.2268 29.1795L22.5587 32.8692C22.3804 33.1151 22.3738 33.4464 22.5422 33.6989L26.7161 39.95C27.0067 40.3796 27.4921 40.6355 28.0138 40.6355H31.3886C31.973 40.6355 32.508 40.3141 32.7788 39.7991C33.0495 39.2842 33.0099 38.6677 32.6797 38.1921H32.683Z" fill="url(#paint1_linear_1_2)"/>
<path d="M19.0584 32.8826L16.5158 29.1667L16.4333 29.0487C16.2979 28.8552 16.0667 28.7469 15.829 28.7437C15.5945 28.7437 15.3601 28.865 15.2181 29.0552C15.2115 29.0651 15.2049 29.0716 15.2016 29.0815L0.97605 50.6093C0.672256 51.0881 0.655745 51.6949 0.929821 52.1901C1.2072 52.6853 1.73223 52.9936 2.3035 52.9936H5.69147C6.23302 52.9936 6.74815 52.7083 7.01892 52.2623L19.065 33.6796C19.2235 33.4336 19.2202 33.1155 19.0551 32.8761L19.0584 32.8826Z" fill="url(#paint2_linear_1_2)"/>
<path d="M20.8516 20.5211L16.113 13.6928C15.8224 13.2631 15.337 13.0073 14.8153 13.0073H11.4405C10.8561 13.0073 10.3211 13.3287 10.0503 13.8436C9.77956 14.3586 9.81919 14.9751 10.156 15.4572L17.5825 25.9129L20.201 29.7337C20.3364 29.9338 20.5643 30.0518 20.8086 30.0518C21.053 30.0518 21.2808 29.9305 21.4162 29.7304L26.6765 22.0199C22.7833 23.604 20.8516 20.5244 20.8516 20.5244V20.5211Z" fill="url(#paint3_linear_1_2)"/>
<defs>
<linearGradient id="paint0_linear_1_2" x1="32.7754" y1="15.0082" x2="26.666" y2="5.55091" gradientUnits="userSpaceOnUse">
<stop stop-color="#004A77"/>
<stop offset="0.4" stop-color="#006D9E"/>
<stop offset="0.79" stop-color="#0089BD"/>
<stop offset="1" stop-color="#0094C9"/>
</linearGradient>
<linearGradient id="paint1_linear_1_2" x1="22.4233" y1="34.755" x2="32.9637" y2="34.755" gradientUnits="userSpaceOnUse">
<stop stop-color="#004A77"/>
<stop offset="0.18" stop-color="#014D7B"/>
<stop offset="0.36" stop-color="#055987"/>
<stop offset="0.55" stop-color="#0C6D9C"/>
<stop offset="0.74" stop-color="#1589B8"/>
<stop offset="0.93" stop-color="#21ACDD"/>
<stop offset="1" stop-color="#27BCEE"/>
</linearGradient>
<linearGradient id="paint2_linear_1_2" x1="15.7134" y1="37.871" x2="-4.90459" y2="50.8669" gradientUnits="userSpaceOnUse">
<stop stop-color="#004A77"/>
<stop offset="0.67" stop-color="#0078AA"/>
<stop offset="1" stop-color="#008ABE"/>
</linearGradient>
<linearGradient id="paint3_linear_1_2" x1="18.2726" y1="13.004" x2="18.2726" y2="30.0518" gradientUnits="userSpaceOnUse">
<stop stop-color="#27BCEE"/>
<stop offset="0.57" stop-color="#0F78A7"/>
<stop offset="1" stop-color="#004A77"/>
</linearGradient>
</defs>
</svg>
