<svg width="238" height="54" viewBox="0 0 238 54" fill="none" xmlns="http://www.w3.org/2000/svg">
<g clip-path="url(#clip0_1073_4830)">
<path d="M0 7.25146H4.24982V15.6967H8.59541V19.9176H4.24982V41.0748H0V7.25146Z" fill="#0082B5"/>
<path d="M64.4277 22.1675C64.4277 18.0383 66.835 15.6934 71.0386 15.6934H79.0693C83.3191 15.6934 85.7759 17.9924 85.7759 21.8854V34.0334C85.7759 38.0674 82.9427 41.0683 79.2113 41.0683H68.6776V53.9509H64.4277V22.1642V22.1675ZM71.0419 36.8506H79.1189C80.5355 36.8506 81.5261 35.8175 81.5261 34.3187V22.3085C81.5261 20.6654 80.8194 19.9176 79.3071 19.9176H71.7023C69.7177 19.9176 68.6809 20.8556 68.6809 22.4987V33.9448C68.6809 35.5879 69.6715 36.8539 71.0419 36.8539V36.8506Z" fill="#004A77"/>
<path d="M118.13 22.4003C118.13 20.1472 118.648 18.3663 119.546 17.3824C120.537 16.4444 122.522 15.6934 124.411 15.6934H126.818V19.9635H124.741C123.182 19.9635 122.38 20.9015 122.38 22.4954V41.0716H118.13V22.4003Z" fill="#004A77"/>
<path d="M168.101 22.2134C168.101 20.0553 168.857 18.2745 170.32 17.0544C171.502 16.0705 172.777 15.6934 175.23 15.6934H181.983C184.44 15.6934 185.714 16.0705 186.943 17.0544C188.359 18.1794 189.162 20.0553 189.162 22.2134V41.0716H184.958V22.7775C184.958 22.1215 184.863 21.6985 184.863 21.6034C184.816 21.2754 184.625 20.9933 184.344 20.6654C183.826 20.2423 183.116 20.0094 182.029 20.0094H175.227C173.054 20.0094 172.347 20.7146 172.347 22.7775V41.0716H168.098V22.2134H168.101Z" fill="#004A77"/>
<path d="M202.294 41.0717C198.232 41.0717 195.211 38.3496 195.211 34.6468V22.1217C195.211 19.5898 195.825 18.1795 197.572 17.1038C198.893 16.1658 200.501 15.6968 202.248 15.6968H211.976V19.9177H202.248C200.593 19.9177 199.461 21.0919 199.461 22.6858V33.7088C199.461 35.4438 200.785 36.8507 202.39 36.8507H212.072V41.0717H202.294Z" fill="#004A77"/>
<path d="M148.49 41.0419C144.283 41.0419 141.542 38.3657 141.542 34.3284V22.9676C141.542 18.0382 144.095 15.644 149.388 15.644H155.721C159.974 15.644 162.481 18.0382 162.481 22.1673V30.56L145.798 30.5371V33.7184C145.798 33.8135 145.845 34.1874 145.94 34.7974C146.036 35.2205 146.129 35.5944 146.32 35.9256C146.65 36.5356 147.407 36.8177 148.684 36.8177H162.484V41.0419H148.493H148.49ZM145.795 25.8439L158.178 26.0078V22.0296C158.178 20.4324 157.564 19.8716 155.579 19.8716H148.632C146.601 19.8716 145.795 20.8095 145.795 23.0627V25.8439Z" fill="#004A77"/>
<path d="M98.6244 41.0419C94.4175 41.0419 91.6768 38.3657 91.6768 34.3284V22.9676C91.6768 18.0382 94.2293 15.644 99.5226 15.644H105.856C110.109 15.644 112.615 18.0382 112.615 22.1673V30.56L95.9332 30.5371V33.7184C95.9332 33.8135 95.9794 34.1874 96.0752 34.7974C96.1709 35.2205 96.2634 35.5944 96.4549 35.9256C96.7851 36.5356 97.5413 36.8177 98.8192 36.8177H112.857V41.0419H98.631H98.6244ZM95.9299 25.8439L108.313 26.0078V22.0296C108.313 20.4324 107.699 19.8716 105.714 19.8716H98.7664C96.7356 19.8716 95.9299 20.8095 95.9299 23.0627V25.8439Z" fill="#004A77"/>
<path d="M223.774 41.0419C219.567 41.0419 216.827 38.3657 216.827 34.3284V22.9676C216.827 18.0382 219.379 15.644 224.672 15.644H231.006C235.259 15.644 237.765 18.0382 237.765 22.1673V30.56L221.083 30.5371V33.7184C221.083 33.8135 221.129 34.1874 221.225 34.7974C221.321 35.2205 221.413 35.5944 221.605 35.9256C221.935 36.5356 222.691 36.8177 223.969 36.8177H238.006V41.0419H223.781H223.774ZM221.08 25.8439L233.463 26.0078V22.0296C233.463 20.4324 232.849 19.8716 230.864 19.8716H223.916C221.885 19.8716 221.08 20.8095 221.08 23.0627V25.8439Z" fill="#004A77"/>
<path d="M18.9242 41.206C14.7173 41.206 11.9766 38.5298 11.9766 34.4925V23.1316C11.9766 18.2023 14.5291 15.8081 19.8224 15.8081H26.1558C30.409 15.8081 32.9153 18.2023 32.9153 22.3314V30.7241L16.233 30.7012V33.8824C16.233 33.9776 16.2792 34.3514 16.375 34.9615C16.4707 35.3845 16.5632 35.7584 16.7547 36.0897C17.0849 36.6997 17.8411 36.9817 19.119 36.9817H28.6192V41.206H18.9308H18.9242ZM16.2297 26.0079L28.6126 26.1719V22.1937C28.6126 20.5964 27.9984 20.0356 26.0139 20.0356H19.0662C17.0354 20.0356 16.2297 20.9736 16.2297 23.2268V26.0079Z" fill="#0082B5"/>
<path d="M133.009 7.72363C134.683 7.72363 135.984 9.01583 135.984 10.6327C135.984 12.2496 134.683 13.4959 133.102 13.4959C131.52 13.4959 130.222 12.2037 130.222 10.6327C130.222 9.06174 131.477 7.72363 133.009 7.72363ZM131.058 16.0311H135.192V41.0616H131.058V16.0311Z" fill="#004A77"/>
<path d="M68.7301 1.81376C68.6013 1.57434 68.3536 1.42676 68.0796 1.42676H61.9508C61.6999 1.42676 61.4654 1.55467 61.33 1.76784L48.2306 22.4167C48.0754 22.6627 48.082 22.9743 48.2438 23.217L50.7798 26.9263C50.9152 27.1264 51.143 27.2444 51.3874 27.2444C51.6317 27.2444 51.8563 27.1264 51.995 26.9263L68.6872 2.56809C68.8391 2.34507 68.8556 2.05646 68.7301 1.81704V1.81376Z" fill="url(#paint0_linear_1073_4830)"/>
<path d="M60.6831 39.1921L54.4289 30.1894C54.2935 29.9926 54.069 29.8778 53.8312 29.8745H53.8246C53.5869 29.8745 53.3656 29.9893 53.2269 30.1795L50.5588 33.8692C50.3805 34.1151 50.3739 34.4464 50.5423 34.6989L54.7162 40.95C55.0068 41.3796 55.4922 41.6355 56.0139 41.6355H59.3887C59.9732 41.6355 60.5081 41.3141 60.7789 40.7991C61.0497 40.2842 61.01 39.6677 60.6798 39.1921H60.6831Z" fill="url(#paint1_linear_1073_4830)"/>
<path d="M47.0587 33.8826L44.5161 30.1667L44.4335 30.0487C44.2981 29.8552 44.067 29.7469 43.8292 29.7437C43.5948 29.7437 43.3603 29.865 43.2183 30.0552C43.2117 30.0651 43.2051 30.0716 43.2018 30.0815L28.9763 51.6093C28.6725 52.0881 28.656 52.6949 28.9301 53.1901C29.2074 53.6853 29.7325 53.9936 30.3037 53.9936H33.6917C34.2333 53.9936 34.7484 53.7083 35.0192 53.2623L47.0653 34.6796C47.2238 34.4336 47.2205 34.1155 47.0554 33.8761L47.0587 33.8826Z" fill="url(#paint2_linear_1073_4830)"/>
<path d="M48.8514 21.5214C48.2306 20.5506 48.8679 21.541 48.8514 21.5214V21.5214Z" fill="#004A77"/>
<path d="M48.8516 21.5211L44.113 14.6928C43.8224 14.2631 43.337 14.0073 42.8153 14.0073H39.4405C38.8561 14.0073 38.3211 14.3287 38.0503 14.8436C37.7796 15.3586 37.8192 15.9751 38.156 16.4572L45.5825 26.9129L48.201 30.7337C48.3364 30.9338 48.5643 31.0518 48.8086 31.0518C49.053 31.0518 49.2808 30.9305 49.4162 30.7304L54.6765 23.0199C50.7833 24.604 48.8516 21.5244 48.8516 21.5244V21.5211Z" fill="url(#paint3_linear_1073_4830)"/>
<path d="M15.9924 7.27434C15.9924 7.83516 15.7777 8.32384 15.4013 8.64525C15.0744 8.8945 14.7343 8.99617 14.0837 8.99617H12.2874C11.6336 8.99617 11.3067 8.89778 10.9798 8.64525C10.6033 8.33368 10.3887 7.83516 10.3887 7.27434V2.24658H11.518V7.12675C11.518 7.30058 11.518 7.40225 11.5312 7.43832C11.5444 7.51375 11.5807 7.59903 11.6699 7.67446C11.8086 7.79909 11.9836 7.84828 12.2841 7.84828H14.0936C14.6583 7.84828 14.8729 7.66134 14.8729 7.12347V2.24658H15.9924V7.27434Z" fill="#04ABDF"/>
<path d="M17.6001 3.98167C17.6001 3.40773 17.8015 2.93217 18.1912 2.61077C18.5049 2.34839 18.845 2.25 19.4988 2.25H21.2952C21.949 2.25 22.2891 2.34839 22.6127 2.61077C22.9892 2.90922 23.2038 3.40773 23.2038 3.98167V8.99631H22.0844V4.12926C22.0844 3.95544 22.058 3.84393 22.058 3.81769C22.0447 3.72914 21.9952 3.65698 21.9193 3.56843C21.7806 3.45692 21.5924 3.39461 21.3051 3.39461H19.4955C18.9176 3.39461 18.7294 3.58155 18.7294 4.12926V8.99631H17.6001V3.98167Z" fill="#04ABDF"/>
<path d="M27.5264 0H28.6557V2.24658H29.8114V3.36824H28.6557V8.99617H27.5264V0Z" fill="#04ABDF"/>
<path d="M32.3605 8.99603C31.2411 8.99603 30.5146 8.28434 30.5146 7.21189V4.1913C30.5146 2.8827 31.1916 2.24316 32.6016 2.24316H34.2857C35.415 2.24316 36.082 2.87942 36.082 3.97812V6.2083L31.6473 6.20174V7.0479C31.6473 7.07414 31.6605 7.17253 31.6836 7.33323C31.71 7.44474 31.7331 7.54641 31.7827 7.63169C31.8718 7.79239 32.0732 7.86782 32.4101 7.86782H36.1415V8.98947H32.3605V8.99603ZM31.644 4.95546L34.9362 4.9981V3.94204C34.9362 3.51896 34.7744 3.3681 34.246 3.3681H32.4002C31.8586 3.3681 31.6473 3.61735 31.6473 4.21753V4.95546H31.644Z" fill="#04ABDF"/>
<path d="M43.1155 7.10052C43.1155 8.15001 42.3758 8.99617 41.4314 8.99617H39.2091C38.793 8.99617 38.2779 8.77316 37.9543 8.44847C37.6538 8.15001 37.5283 7.78597 37.5283 7.22514V3.9553C37.5283 2.85661 38.1821 2.24658 39.361 2.24658H41.9862V0H43.1155V7.10052ZM39.2586 7.87452H41.2432C41.6824 7.87452 41.9829 7.53671 41.9829 7.06444V4.10616C41.9829 3.58142 41.7682 3.37152 41.2531 3.37152H39.394C38.8657 3.37152 38.6543 3.58469 38.6543 4.1324V7.16611C38.6543 7.56623 38.9185 7.8778 39.2586 7.8778V7.87452Z" fill="#04ABDF"/>
<path d="M25.4166 0.114746C25.8657 0.114746 26.2124 0.462393 26.2124 0.895311C26.2124 1.31511 25.8624 1.66276 25.4397 1.66276C25.017 1.66276 24.667 1.31511 24.667 0.895311C24.667 0.475511 25.0038 0.114746 25.4133 0.114746H25.4166ZM24.8948 2.34165H26.0043V9.03221H24.8948V2.34165Z" fill="#04ABDF"/>
</g>
<defs>
<linearGradient id="paint0_linear_1073_4830" x1="60.7753" y1="16.0082" x2="54.6659" y2="6.55091" gradientUnits="userSpaceOnUse">
<stop stop-color="#004A77"/>
<stop offset="0.4" stop-color="#006D9E"/>
<stop offset="0.79" stop-color="#0089BD"/>
<stop offset="1" stop-color="#0094C9"/>
</linearGradient>
<linearGradient id="paint1_linear_1073_4830" x1="50.4234" y1="35.755" x2="60.9638" y2="35.755" gradientUnits="userSpaceOnUse">
<stop stop-color="#004A77"/>
<stop offset="0.18" stop-color="#014D7B"/>
<stop offset="0.36" stop-color="#055987"/>
<stop offset="0.55" stop-color="#0C6D9C"/>
<stop offset="0.74" stop-color="#1589B8"/>
<stop offset="0.93" stop-color="#21ACDD"/>
<stop offset="1" stop-color="#27BCEE"/>
</linearGradient>
<linearGradient id="paint2_linear_1073_4830" x1="43.7136" y1="38.871" x2="23.0957" y2="51.8669" gradientUnits="userSpaceOnUse">
<stop stop-color="#004A77"/>
<stop offset="0.67" stop-color="#0078AA"/>
<stop offset="1" stop-color="#008ABE"/>
</linearGradient>
<linearGradient id="paint3_linear_1073_4830" x1="46.2726" y1="14.004" x2="46.2726" y2="31.0518" gradientUnits="userSpaceOnUse">
<stop stop-color="#27BCEE"/>
<stop offset="0.57" stop-color="#0F78A7"/>
<stop offset="1" stop-color="#004A77"/>
</linearGradient>
<clipPath id="clip0_1073_4830">
<rect width="238" height="54" fill="white"/>
</clipPath>
</defs>
</svg>
