<svg width="112" height="118" viewBox="0 0 112 118" fill="none" xmlns="http://www.w3.org/2000/svg">
<path d="M25.4431 90.2272C28.1578 93.3342 31.062 96.3778 34.2187 99.2946C20.7711 100.119 9.65953 98.4703 3.72492 97.2655L25.4431 90.2272ZM112 62.2642C110.864 63.469 109.475 64.9273 107.833 66.5125C101.583 72.5997 94.575 77.9894 86.9989 82.6182C86.7464 82.8085 86.4307 82.9353 86.115 83.1255C85.9256 83.2523 85.7362 83.3791 85.4837 83.5059C85.4205 83.5693 85.3574 83.5693 85.2311 83.6328C80.8117 86.2325 76.3292 88.5152 71.7204 90.4174L70.6471 90.8613C70.5209 90.9247 70.4577 90.9881 70.2683 91.0515C67.6798 92.066 65.0282 93.0806 62.3766 93.9683C59.7881 94.7926 57.2627 95.4901 54.9267 96.0608L45.8985 83.5694L112 62.2642ZM0.126264 25.6777L13.5107 44.066C11.4273 47.5535 9.40699 51.2946 7.63923 55.0991C2.71477 42.6077 0.820741 31.638 0.126264 25.6777ZM26.1375 61.4399L67.1748 118C65.6595 117.303 63.8287 116.415 61.8084 115.4C54.0429 111.215 46.7193 106.269 40.0271 100.499C39.7745 100.309 39.522 100.119 39.2695 99.8653C39.0801 99.675 38.9538 99.5482 38.7644 99.4214L38.5118 99.1678C34.6607 95.7437 31.062 92.0661 27.779 88.325C27.5896 88.1347 27.4634 87.9445 27.274 87.6909L27.2108 87.6275L27.1477 87.5641L26.7058 87.0568C24.938 84.9643 23.2334 82.745 21.5919 80.5258C20.0767 78.4333 18.5614 76.1506 17.0462 73.8045L26.1375 61.4399ZM26.3269 31.2576L40.9741 35.9498L-1.11975e-06 92.3831C0.757609 86.1057 2.7779 74.3752 8.27057 61.0594L9.09132 59.2206C11.1747 54.4016 13.5107 49.8996 16.0361 45.7781C16.1623 45.5878 16.2886 45.3976 16.3517 45.2074L16.4149 45.0806L16.478 45.0172L16.5412 44.8904C16.6043 44.7635 16.7306 44.6367 16.7937 44.4465C18.1826 42.1638 19.761 39.8177 21.4025 37.4716C22.9177 35.3791 24.5592 33.2867 26.3269 31.2576ZM66.9854 0.0607652L53.5378 18.5125C49.5603 17.6248 45.3935 16.8639 41.1635 16.3567C47.4769 11.0938 54.3585 6.5284 61.5558 2.6605C63.7024 1.58256 65.4701 0.758252 66.9854 0.0607652ZM88.451 36.3302C95.3957 40.7054 101.899 45.8415 107.833 51.4848C109.538 53.1334 110.927 54.5918 112 55.7966L90.2187 48.7583C89.8399 44.6367 89.2717 40.4518 88.451 36.3302ZM35.7339 18.8296C36.1127 18.8296 36.4284 18.893 36.7441 18.893L37.7542 18.9564C42.9312 19.4637 47.9188 20.2246 52.7802 21.3659L53.5378 21.5561L53.6009 21.6196L53.7272 21.6196L54.2323 21.7464C56.8208 22.3804 59.5355 23.1413 62.2503 24.0291C64.7757 24.8534 67.301 25.7411 69.7001 26.7556L69.7001 42.1638L3.66178 20.7952C9.84893 19.5271 21.5287 17.7517 35.7339 18.8296ZM84.0316 87.8177C80.6855 100.943 75.761 110.962 72.7937 116.225L72.7937 93.2708C76.5818 91.6856 80.3067 89.8468 84.0316 87.8177ZM72.7937 1.96301C73.5513 3.29458 74.4983 5.13341 75.5716 7.2893C79.4228 15.0885 82.327 23.395 84.4104 31.9551C84.4735 32.2721 84.5367 32.5892 84.6629 32.9696C84.7261 33.2232 84.7892 33.5403 84.9155 33.9207C86.0519 38.93 86.8095 44.0026 87.2514 48.9485C87.2514 49.2021 87.3146 49.4557 87.3146 49.7094L87.3777 50.28L87.3777 50.5337C87.8196 55.7966 87.8196 61.6935 87.4408 67.1466L72.8568 71.8388L72.8568 1.96301L72.7937 1.96301Z" fill="#28BCEF"/>
</svg>
